<svg width="12" height="11" viewBox="0 0 12 11" fill="none" xmlns="http://www.w3.org/2000/svg">
<path d="M12 4.88889V10.3889C12 10.551 11.9368 10.7064 11.8243 10.821C11.7117 10.9356 11.5591 11 11.4 11H0.6C0.44087 11 0.288258 10.9356 0.175736 10.821C0.0632141 10.7064 0 10.551 0 10.3889V4.88889H12ZM12 3.66667H0V0.611111C0 0.449034 0.0632141 0.293596 0.175736 0.17899C0.288258 0.0643847 0.44087 0 0.6 0H5.0484L6.2484 1.22222H11.4C11.5591 1.22222 11.7117 1.28661 11.8243 1.40121C11.9368 1.51582 12 1.67126 12 1.83333V3.66667Z" fill="#F59E0B"/>
</svg>
