<svg width="30" height="35" viewBox="0 0 30 35" fill="none" xmlns="http://www.w3.org/2000/svg">
<path d="M0.520493 0C0.207578 0 -0.0255453 0.255 0.0022487 0.566585L2.64008 30.1544C2.66788 30.466 2.93717 30.7895 3.23878 30.8732L14.4324 33.9813C14.734 34.065 15.2273 34.065 15.5289 33.9814L26.7566 30.8683C27.0581 30.7847 27.3278 30.4613 27.3555 30.1497L29.9977 0.566585C30.0257 0.255 29.7923 0 29.4794 0H0.520493ZM24.3801 6.78585C24.3551 7.06379 24.3121 7.54633 24.2843 7.85798L24.2148 8.63428C24.1868 8.9458 24.147 9.39137 24.1259 9.62429C24.105 9.85728 24.0851 10.0479 24.0815 10.0479C24.0779 10.0479 23.819 10.0479 23.5061 10.0479H15.5689C15.2559 10.0479 14.9974 10.0479 14.994 10.0479C14.9906 10.0479 14.7317 10.0479 14.4188 10.0479H10.2385C9.92563 10.0479 9.6925 10.3029 9.72029 10.6145L9.96412 13.34C9.99192 13.6516 10.2708 13.9066 10.5836 13.9066H14.4189C14.7318 13.9066 14.9906 13.9066 14.994 13.9066C14.9975 13.9066 15.2561 13.9066 15.5689 13.9066H22.1612C22.4741 13.9066 22.9583 13.9066 23.2371 13.9066C23.5158 13.9066 23.7233 14.1341 23.6981 14.412C23.6727 14.69 23.6293 15.1726 23.6016 15.4842L22.8176 24.2712C22.7896 24.5828 22.7542 24.9809 22.739 25.1559C22.7234 25.3308 22.4641 25.5423 22.1625 25.626L15.5483 27.46C15.2467 27.5435 14.9962 27.6126 14.9915 27.6137C14.9869 27.6147 14.7364 27.547 14.4348 27.4634L7.81342 25.6261C7.51187 25.5425 7.24244 25.219 7.21472 24.9074L6.7885 20.1236C6.7607 19.8119 6.99409 19.5569 7.30701 19.5569H7.91129C8.22421 19.5569 8.7362 19.5569 9.04905 19.5569H9.95016C10.2631 19.5569 10.5417 19.8119 10.5697 20.1236L10.7368 21.9963C10.7646 22.3079 11.0344 22.6295 11.3365 22.7111L14.4337 23.5475C14.7356 23.6291 14.9839 23.6959 14.9853 23.6959C14.9867 23.6959 15.2349 23.629 15.5369 23.5474L18.6397 22.709C18.9416 22.6274 19.2117 22.3057 19.2397 21.9941L19.5761 18.2422C19.6041 17.9305 19.371 17.6755 19.0581 17.6755H15.5689C15.256 17.6755 14.9974 17.6755 14.994 17.6755C14.9906 17.6755 14.7318 17.6755 14.4189 17.6755H7.13832C6.8254 17.6755 6.5468 17.4204 6.519 17.1089L5.69343 7.85805C5.66564 7.54639 5.62255 7.06399 5.59761 6.78592C5.57294 6.50798 5.80853 6.28051 6.12144 6.28051H14.4189C14.7318 6.28051 14.9906 6.28051 14.994 6.28051C14.9975 6.28051 15.2561 6.28051 15.5689 6.28051H23.8563C24.1692 6.28037 24.4049 6.50778 24.3801 6.78585Z" fill="#DD512A"/>
</svg>
