<svg width="35" height="35" viewBox="0 0 35 35" fill="none" xmlns="http://www.w3.org/2000/svg">
<path d="M29.75 0H5.25C2.35051 0 0 2.35051 0 5.25V29.75C0 32.6495 2.35051 35 5.25 35H29.75C32.6495 35 35 32.6495 35 29.75V5.25C35 2.35051 32.6495 0 29.75 0Z" fill="#F7DF1E"/>
<path d="M22.1484 25.293C22.832 26.4551 23.7891 27.2754 25.3613 27.2754C26.7285 27.2754 27.6172 26.5918 27.6172 25.6348C27.6172 24.541 26.7285 24.1309 25.2246 23.4473L24.4043 23.1055C22.0117 22.0801 20.4395 20.8496 20.4395 18.1836C20.4395 15.7227 22.2852 13.8086 25.2246 13.8086C27.3438 13.8086 28.8477 14.5605 29.873 16.4746L27.3438 18.1152C26.7969 17.0898 26.1816 16.6797 25.2246 16.6797C24.2676 16.6797 23.6523 17.2949 23.6523 18.1152C23.6523 19.0723 24.2676 19.4824 25.7031 20.0977L26.5234 20.4395C29.3262 21.6699 30.8984 22.832 30.8984 25.6348C30.8984 28.5742 28.5742 30.2148 25.4297 30.2148C22.3535 30.2148 20.3711 28.7793 19.4141 26.8652L22.1484 25.293ZM10.5273 25.5664C11.0742 26.4551 11.4844 27.2754 12.6465 27.2754C13.7402 27.2754 14.4238 26.8652 14.4238 25.2246V13.877H17.7051V25.0879C17.7051 28.5059 15.7227 30.0098 12.7832 30.0098C10.1172 30.0098 8.61328 28.6426 7.86133 27.002L10.5273 25.5664Z" fill="black"/>
</svg>
