<svg width="12" height="11" viewBox="0 0 12 11" fill="none" xmlns="http://www.w3.org/2000/svg">
<path d="M1.2 9.16667V6.90556C1.2 6.66244 1.10518 6.42928 0.936396 6.25737C0.767613 6.08547 0.538695 5.98889 0.3 5.98889H0V5.01111H0.3C0.41819 5.01111 0.535222 4.9874 0.644415 4.94133C0.753608 4.89527 0.852823 4.82775 0.936396 4.74263C1.01997 4.65751 1.08626 4.55645 1.13149 4.44524C1.17672 4.33402 1.2 4.21482 1.2 4.09444V1.83333C1.2 1.3471 1.38964 0.880788 1.72721 0.536971C2.06477 0.193154 2.52261 0 3 0H3.6V1.22222H3C2.84087 1.22222 2.68826 1.28661 2.57574 1.40121C2.46321 1.51582 2.4 1.67126 2.4 1.83333V4.33889C2.40006 4.59617 2.32041 4.84692 2.17238 5.0554C2.02436 5.26388 1.81551 5.41947 1.5756 5.5C1.81551 5.58053 2.02436 5.73612 2.17238 5.9446C2.32041 6.15308 2.40006 6.40383 2.4 6.66111V9.16667C2.4 9.32874 2.46321 9.48418 2.57574 9.59879C2.68826 9.71339 2.84087 9.77778 3 9.77778H3.6V11H3C2.52261 11 2.06477 10.8068 1.72721 10.463C1.38964 10.1192 1.2 9.6529 1.2 9.16667ZM10.8 6.90556V9.16667C10.8 9.6529 10.6104 10.1192 10.2728 10.463C9.93523 10.8068 9.47739 11 9 11H8.4V9.77778H9C9.15913 9.77778 9.31174 9.71339 9.42426 9.59879C9.53679 9.48418 9.6 9.32874 9.6 9.16667V6.66111C9.59994 6.40383 9.67959 6.15308 9.82762 5.9446C9.97564 5.73612 10.1845 5.58053 10.4244 5.5C10.1845 5.41947 9.97564 5.26388 9.82762 5.0554C9.67959 4.84692 9.59994 4.59617 9.6 4.33889V1.83333C9.6 1.67126 9.53679 1.51582 9.42426 1.40121C9.31174 1.28661 9.15913 1.22222 9 1.22222H8.4V0H9C9.47739 0 9.93523 0.193154 10.2728 0.536971C10.6104 0.880788 10.8 1.3471 10.8 1.83333V4.09444C10.8 4.33756 10.8948 4.57072 11.0636 4.74263C11.2324 4.91453 11.4613 5.01111 11.7 5.01111H12V5.98889H11.7C11.4613 5.98889 11.2324 6.08547 11.0636 6.25737C10.8948 6.42928 10.8 6.66244 10.8 6.90556Z" fill="#F59E0B"/>
</svg>
