<svg width="40" height="36" viewBox="0 0 40 36" fill="none" xmlns="http://www.w3.org/2000/svg">
<path d="M24.6263 26.0828C23.6143 27.5344 22.5116 28.9193 21.3248 30.2291C24.4846 33.3231 27.4251 34.7719 29.0541 33.8206C30.687 32.8713 30.9118 29.5791 29.8365 25.2727C28.2245 25.6349 26.4726 25.9094 24.6263 26.0828ZM22.1506 26.2487C20.7175 26.3085 19.2825 26.3085 17.8494 26.2487C18.5618 27.1866 19.2819 28.0559 20 28.8489C20.7181 28.0559 21.4363 27.1866 22.1506 26.2487ZM31.6753 11.2001C36.7117 12.6566 40 15.0776 40 18C40 20.9224 36.7117 23.3434 31.6753 24.7999C32.9415 29.9279 32.5087 34.0113 30.0009 35.4715C27.4913 36.9337 23.7683 35.2714 20 31.6017C16.2317 35.2714 12.5087 36.9337 9.99906 35.4715C7.49126 34.0113 7.0566 29.9279 8.32467 24.7999C3.28829 23.3434 0 20.9224 0 18C0 15.0776 3.28829 12.6566 8.32467 11.2001C7.05849 6.07208 7.49126 1.98872 9.99906 0.528474C12.5087 -0.933682 16.2317 0.728638 20 4.39833C23.7683 0.728638 27.4913 -0.933682 30.0009 0.528474C32.5087 1.98872 32.9434 6.07208 31.6753 11.2001ZM29.8365 10.7273C30.9137 6.41904 30.687 3.12871 29.056 2.17936C27.4251 1.2281 24.4846 2.67691 21.3267 5.77088C22.4435 6.99666 23.5548 8.39018 24.6263 9.91716C26.4745 10.0887 28.2245 10.3632 29.8365 10.7273ZM10.1635 25.2727C9.08627 29.581 9.31305 32.8713 10.944 33.8206C12.5749 34.7719 15.5155 33.3231 18.6733 30.2291C17.4872 28.9192 16.385 27.5343 15.3737 26.0828C13.6216 25.9249 11.8814 25.6542 10.1635 25.2727ZM17.8494 9.7513C19.2825 9.69145 20.7175 9.69145 22.1506 9.7513C21.4712 8.8543 20.7537 7.98738 20 7.15297C19.2819 7.94601 18.5637 8.81339 17.8494 9.7513ZM15.3737 9.91716C16.3863 8.46556 17.4896 7.08066 18.6771 5.77088C15.5155 2.67691 12.573 1.2281 10.9459 2.17936C9.31305 3.12871 9.08816 6.42094 10.1635 10.7273C11.7755 10.3651 13.5274 10.0906 15.3737 9.91716ZM23.5793 24.2528C24.9246 22.2613 26.1204 20.1713 27.1568 18C26.1204 15.8287 24.9246 13.7387 23.5793 11.7472C21.1964 11.5673 18.8036 11.5673 16.4207 11.7472C15.0754 13.7387 13.8796 15.8287 12.8432 18C13.8796 20.1713 15.0754 22.2613 16.4207 24.2528C18.8036 24.4327 21.1964 24.4327 23.5793 24.2528ZM26.0059 24.003C27.1681 23.8505 28.2736 23.6542 29.313 23.4235C28.9732 22.3479 28.5873 21.2876 28.1565 20.2457C27.4912 21.5269 26.7738 22.7798 26.0059 24.0011V24.003ZM13.9941 11.9951C12.8319 12.1476 11.7264 12.3439 10.687 12.5746C11.0082 13.5964 11.3937 14.6601 11.8435 15.7524C12.5088 14.4712 13.2262 13.2164 13.9941 11.9951ZM10.687 23.4216C11.7264 23.6523 12.8319 23.8467 13.9941 24.0011C13.2262 22.7798 12.5088 21.5269 11.8435 20.2457C11.3937 21.3361 11.0082 22.3998 10.687 23.4216ZM8.8387 22.9546C9.33195 21.3647 9.9726 19.6985 10.7474 17.9981C9.9726 16.2976 9.33195 14.6315 8.8387 13.0416C4.60172 14.256 1.88982 16.0994 1.88982 17.9981C1.88982 19.8968 4.60172 21.7402 8.8387 22.9546ZM29.313 12.5746C28.2736 12.3439 27.1681 12.1495 26.0059 11.9951C26.7738 13.2164 27.4912 14.4693 28.1565 15.7505C28.6063 14.6601 28.9918 13.5964 29.313 12.5746ZM31.1613 13.0416C30.6681 14.6315 30.0274 16.2976 29.2526 17.9981C30.0274 19.6985 30.6681 21.3647 31.1613 22.9546C35.3983 21.7402 38.1102 19.8968 38.1102 17.9981C38.1102 16.0994 35.3983 14.256 31.1613 13.0416ZM20 21.5839C19.5334 21.5839 19.0714 21.4912 18.6404 21.3111C18.2093 21.131 17.8177 20.867 17.4877 20.5342C17.1578 20.2014 16.8961 19.8063 16.7176 19.3715C16.539 18.9367 16.4471 18.4706 16.4471 18C16.4471 17.5294 16.539 17.0633 16.7176 16.6285C16.8961 16.1937 17.1578 15.7986 17.4877 15.4658C17.8177 15.133 18.2093 14.869 18.6404 14.6889C19.0714 14.5088 19.5334 14.4161 20 14.4161C20.9423 14.4161 21.846 14.7937 22.5123 15.4658C23.1786 16.1379 23.5529 17.0495 23.5529 18C23.5529 18.9505 23.1786 19.8621 22.5123 20.5342C21.846 21.2063 20.9423 21.5839 20 21.5839Z" fill="#F59E0B"/>
</svg>
