<svg width="80" height="74" viewBox="0 0 80 74" fill="none" xmlns="http://www.w3.org/2000/svg">
<path d="M78.7234 0H1.27656C0.571406 0 0 0.571406 0 1.27656V71.9148C0 72.62 0.571406 73.1914 1.27656 73.1914H78.7234C79.4286 73.1914 80 72.62 80 71.9148V1.27656C80 0.571406 79.4286 0 78.7234 0ZM77.4469 70.6383H2.55312V12.7659H77.4469V70.6383ZM77.4469 10.2128H2.55312V2.55328H77.4469V10.2128Z" fill="#B69FE9"/>
<path d="M73.6172 57.8723C74.3223 57.8723 74.8938 57.3009 74.8938 56.5958V16.5958C74.8938 15.8906 74.3223 15.3192 73.6172 15.3192H6.38313C5.67797 15.3192 5.10657 15.8906 5.10657 16.5958V66.8086C5.10657 67.5137 5.67797 68.0852 6.38313 68.0852H73.6172C74.3223 68.0852 74.8938 67.5137 74.8938 66.8086V61.7022C74.8938 60.997 74.3223 60.4256 73.6172 60.4256C72.912 60.4256 72.3406 60.997 72.3406 61.7022V65.532H7.65969V17.8723H72.3405V56.5958C72.3406 57.3009 72.912 57.8723 73.6172 57.8723Z" fill="#B69FE9"/>
<path d="M22.1278 22.5533C20.0161 22.5533 18.298 24.2714 18.298 26.3832V29.7874C18.298 31.8991 20.0161 33.6172 22.1278 33.6172C24.2395 33.6172 25.9577 31.8991 25.9577 29.7874V26.3832C25.9577 24.2714 24.2395 22.5533 22.1278 22.5533ZM23.4044 29.7874C23.4044 30.4914 22.8317 31.0639 22.1278 31.0639C21.4238 31.0639 20.8513 30.4913 20.8513 29.7874V26.3832C20.8513 25.6791 21.4239 25.1066 22.1278 25.1066C22.8319 25.1066 23.4044 25.6793 23.4044 26.3832V29.7874Z" fill="#B69FE9"/>
<path d="M29.7872 22.5533C29.082 22.5533 28.5106 23.1247 28.5106 23.8299V32.3405C28.5106 33.0457 29.082 33.6171 29.7872 33.6171C30.4923 33.6171 31.0637 33.0457 31.0637 32.3405V23.8299C31.0639 23.1247 30.4925 22.5533 29.7872 22.5533Z" fill="#B69FE9"/>
<path d="M37.4468 22.5533C35.3351 22.5533 33.6169 24.2714 33.6169 26.3832V29.7874C33.6169 31.8991 35.3351 33.6172 37.4468 33.6172C39.5585 33.6172 41.2766 31.8991 41.2766 29.7874V26.3832C41.2765 24.2714 39.5583 22.5533 37.4468 22.5533ZM38.7233 29.7874C38.7233 30.4914 38.1507 31.0639 37.4468 31.0639C36.7427 31.0639 36.1702 30.4913 36.1702 29.7874V26.3832C36.1702 25.6791 36.7429 25.1066 37.4468 25.1066C38.1508 25.1066 38.7233 25.6793 38.7233 26.3832V29.7874Z" fill="#B69FE9"/>
<path d="M45.1066 22.5533C44.4015 22.5533 43.8301 23.1247 43.8301 23.8299V32.3405C43.8301 33.0457 44.4015 33.6171 45.1066 33.6171C45.8118 33.6171 46.3832 33.0457 46.3832 32.3405V23.8299C46.3832 23.1247 45.8118 22.5533 45.1066 22.5533Z" fill="#B69FE9"/>
<path d="M50.2127 22.5533C49.5076 22.5533 48.9362 23.1247 48.9362 23.8299V32.3405C48.9362 33.0457 49.5076 33.6171 50.2127 33.6171C50.9179 33.6171 51.4893 33.0457 51.4893 32.3405V23.8299C51.4893 23.1247 50.9179 22.5533 50.2127 22.5533Z" fill="#B69FE9"/>
<path d="M57.8723 22.5533C55.7606 22.5533 54.0425 24.2714 54.0425 26.3832V29.7874C54.0425 31.8991 55.7606 33.6172 57.8723 33.6172C59.984 33.6172 61.7022 31.8991 61.7022 29.7874V26.3832C61.7022 24.2714 59.984 22.5533 57.8723 22.5533ZM59.1489 29.7874C59.1489 30.4914 58.5762 31.0639 57.8723 31.0639C57.1683 31.0639 56.5958 30.4913 56.5958 29.7874V26.3832C56.5958 25.6791 57.1684 25.1066 57.8723 25.1066C58.5764 25.1066 59.1489 25.6793 59.1489 26.3832V29.7874Z" fill="#B69FE9"/>
<path d="M27.2341 49.7873C25.1224 49.7873 23.4043 51.5055 23.4043 53.6172V57.0214C23.4043 59.1331 25.1224 60.8512 27.2341 60.8512C29.3459 60.8512 31.064 59.1331 31.064 57.0214V53.6172C31.064 51.5055 29.3457 49.7873 27.2341 49.7873ZM28.5107 57.0212C28.5107 57.7253 27.938 58.2978 27.2341 58.2978C26.5301 58.2978 25.9576 57.7251 25.9576 57.0212V53.617C25.9576 52.9129 26.5302 52.3404 27.2341 52.3404C27.9382 52.3404 28.5107 52.9131 28.5107 53.617V57.0212Z" fill="#B69FE9"/>
<path d="M19.5748 49.7873C18.8696 49.7873 18.2982 50.3587 18.2982 51.0639V59.5745C18.2982 60.2797 18.8696 60.8511 19.5748 60.8511C20.2799 60.8511 20.8513 60.2797 20.8513 59.5745V51.0639C20.8513 50.3586 20.2799 49.7873 19.5748 49.7873Z" fill="#B69FE9"/>
<path d="M37.4468 49.7873C35.3351 49.7873 33.6169 51.5055 33.6169 53.6172V57.0214C33.6169 59.1331 35.3351 60.8512 37.4468 60.8512C39.5585 60.8512 41.2766 59.1331 41.2766 57.0214V53.6172C41.2765 51.5055 39.5583 49.7873 37.4468 49.7873ZM38.7233 57.0212C38.7233 57.7253 38.1507 58.2978 37.4468 58.2978C36.7427 58.2978 36.1702 57.7251 36.1702 57.0212V53.617C36.1702 52.9129 36.7429 52.3404 37.4468 52.3404C38.1508 52.3404 38.7233 52.9131 38.7233 53.617V57.0212Z" fill="#B69FE9"/>
<path d="M45.1066 49.7873C44.4015 49.7873 43.8301 50.3587 43.8301 51.0639V59.5745C43.8301 60.2797 44.4015 60.8511 45.1066 60.8511C45.8118 60.8511 46.3832 60.2797 46.3832 59.5745V51.0639C46.3832 50.3586 45.8118 49.7873 45.1066 49.7873Z" fill="#B69FE9"/>
<path d="M50.2127 49.7873C49.5076 49.7873 48.9362 50.3587 48.9362 51.0639V59.5745C48.9362 60.2797 49.5076 60.8511 50.2127 60.8511C50.9179 60.8511 51.4893 60.2797 51.4893 59.5745V51.0639C51.4893 50.3586 50.9179 49.7873 50.2127 49.7873Z" fill="#B69FE9"/>
<path d="M57.8723 49.7873C55.7606 49.7873 54.0425 51.5055 54.0425 53.6172V57.0214C54.0425 59.1331 55.7606 60.8512 57.8723 60.8512C59.984 60.8512 61.7022 59.1331 61.7022 57.0214V53.6172C61.7022 51.5055 59.984 49.7873 57.8723 49.7873ZM59.1489 57.0212C59.1489 57.7253 58.5762 58.2978 57.8723 58.2978C57.1683 58.2978 56.5958 57.7251 56.5958 57.0212V53.617C56.5958 52.9129 57.1684 52.3404 57.8723 52.3404C58.5764 52.3404 59.1489 52.9131 59.1489 53.617V57.0212Z" fill="#B69FE9"/>
<path d="M57.8723 36.1703C55.7606 36.1703 54.0425 37.8884 54.0425 40.0002V43.4044C54.0425 45.5161 55.7606 47.2342 57.8723 47.2342C59.984 47.2342 61.7022 45.5161 61.7022 43.4044V40.0002C61.7022 37.8884 59.984 36.1703 57.8723 36.1703ZM59.1489 43.4042C59.1489 44.1083 58.5762 44.6808 57.8723 44.6808C57.1683 44.6808 56.5958 44.1081 56.5958 43.4042V40C56.5958 39.2959 57.1684 38.7234 57.8723 38.7234C58.5764 38.7234 59.1489 39.2961 59.1489 40V43.4042Z" fill="#B69FE9"/>
<path d="M50.2127 36.1703C49.5076 36.1703 48.9362 36.7417 48.9362 37.4469V45.9575C48.9362 46.6627 49.5076 47.2341 50.2127 47.2341C50.9179 47.2341 51.4893 46.6627 51.4893 45.9575V37.4469C51.4893 36.7417 50.9179 36.1703 50.2127 36.1703Z" fill="#B69FE9"/>
<path d="M42.5531 36.1703C40.4414 36.1703 38.7233 37.8884 38.7233 40.0002V43.4044C38.7233 45.5161 40.4414 47.2342 42.5531 47.2342C44.6648 47.2342 46.383 45.5161 46.383 43.4044V40.0002C46.383 37.8884 44.6648 36.1703 42.5531 36.1703ZM43.8298 43.4042C43.8298 44.1083 43.2572 44.6808 42.5533 44.6808C41.8492 44.6808 41.2767 44.1081 41.2767 43.4042V40C41.2767 39.2959 41.8494 38.7234 42.5533 38.7234C43.2573 38.7234 43.8298 39.2961 43.8298 40V43.4042Z" fill="#B69FE9"/>
<path d="M34.8935 36.1703C34.1883 36.1703 33.6169 36.7417 33.6169 37.4469V45.9575C33.6169 46.6627 34.1883 47.2341 34.8935 47.2341C35.5987 47.2341 36.1701 46.6627 36.1701 45.9575V37.4469C36.1701 36.7417 35.5987 36.1703 34.8935 36.1703Z" fill="#B69FE9"/>
<path d="M29.7872 36.1703C29.082 36.1703 28.5106 36.7417 28.5106 37.4469V45.9575C28.5106 46.6627 29.082 47.2341 29.7872 47.2341C30.4923 47.2341 31.0637 46.6627 31.0637 45.9575V37.4469C31.0639 36.7417 30.4925 36.1703 29.7872 36.1703Z" fill="#B69FE9"/>
<path d="M22.1278 36.1703C20.0161 36.1703 18.298 37.8884 18.298 40.0002V43.4044C18.298 45.5161 20.0161 47.2342 22.1278 47.2342C24.2395 47.2342 25.9577 45.5161 25.9577 43.4044V40.0002C25.9577 37.8884 24.2395 36.1703 22.1278 36.1703ZM23.4044 43.4042C23.4044 44.1083 22.8317 44.6808 22.1278 44.6808C21.4238 44.6808 20.8513 44.1081 20.8513 43.4042V40C20.8513 39.2959 21.4239 38.7234 22.1278 38.7234C22.8319 38.7234 23.4044 39.2961 23.4044 40V43.4042Z" fill="#B69FE9"/>
<path d="M67.2341 7.65954C67.9391 7.65954 68.5106 7.088 68.5106 6.38298C68.5106 5.67795 67.9391 5.10641 67.2341 5.10641C66.5291 5.10641 65.9575 5.67795 65.9575 6.38298C65.9575 7.088 66.5291 7.65954 67.2341 7.65954Z" fill="#B69FE9"/>
<path d="M62.1276 7.65954C62.8327 7.65954 63.4042 7.088 63.4042 6.38298C63.4042 5.67795 62.8327 5.10641 62.1276 5.10641C61.4226 5.10641 60.8511 5.67795 60.8511 6.38298C60.8511 7.088 61.4226 7.65954 62.1276 7.65954Z" fill="#B69FE9"/>
<path d="M72.3405 7.65954C73.0456 7.65954 73.6171 7.088 73.6171 6.38298C73.6171 5.67795 73.0456 5.10641 72.3405 5.10641C71.6355 5.10641 71.064 5.67795 71.064 6.38298C71.064 7.088 71.6355 7.65954 72.3405 7.65954Z" fill="#B69FE9"/>
</svg>
