<svg width="30" height="33" viewBox="0 0 30 33" fill="none" xmlns="http://www.w3.org/2000/svg">
<path fill-rule="evenodd" clip-rule="evenodd" d="M30 8.75L15 0L0 8.75V23.9217L2.32232 25.2763L7.06763 23.3563C8.3751 22.8274 9.23086 21.5579 9.23086 20.1475V8.2589H11.5386V20.1475C11.5386 22.4983 10.1123 24.6137 7.9332 25.4955L4.84214 26.7463L15 32.6715L30 23.9217V8.75ZM13.8462 12.8743C13.8462 10.3253 15.9125 8.2589 18.4615 8.2589H21.1539C23.4905 8.2589 25.3846 10.1531 25.3846 12.4897V12.8743H23.0769V12.4897C23.0769 11.4276 22.2159 10.5666 21.1539 10.5666H18.4615C17.187 10.5666 16.1538 11.5998 16.1538 12.8743C16.1538 14.1488 17.187 15.182 18.4615 15.182H20.7692C23.3183 15.182 25.3846 17.2484 25.3846 19.7974C25.3846 22.3464 23.3183 24.4127 20.7692 24.4127H18.4615C15.9125 24.4127 13.8462 22.3464 13.8462 19.7974H16.1538C16.1538 21.0719 17.187 22.1051 18.4615 22.1051H20.7692C22.0438 22.1051 23.0769 21.0719 23.0769 19.7974C23.0769 18.5229 22.0438 17.4897 20.7692 17.4897H18.4615C15.9125 17.4897 13.8462 15.4233 13.8462 12.8743Z" fill="#22C55E"/>
</svg>
