<svg width="80" height="80" viewBox="0 0 80 80" fill="none" xmlns="http://www.w3.org/2000/svg">
<path d="M17.1428 34.2857C21.87 34.2857 25.7143 30.4414 25.7143 25.7143C25.7143 20.9871 21.87 17.1429 17.1428 17.1429C12.4157 17.1429 8.57141 20.9871 8.57141 25.7143C8.57141 30.4414 12.4157 34.2857 17.1428 34.2857ZM17.1428 20C20.2943 20 22.8571 22.5629 22.8571 25.7143C22.8571 28.8657 20.2943 31.4286 17.1428 31.4286C13.9914 31.4286 11.4286 28.8657 11.4286 25.7143C11.4286 22.5629 13.9914 20 17.1428 20Z" fill="#22C55E"/>
<path d="M62.8572 34.2857C67.5843 34.2857 71.4286 30.4414 71.4286 25.7143C71.4286 20.9871 67.5843 17.1429 62.8572 17.1429C58.1301 17.1429 54.2858 20.9871 54.2858 25.7143C54.2858 30.4414 58.1301 34.2857 62.8572 34.2857ZM62.8572 20C66.0086 20 68.5715 22.5629 68.5715 25.7143C68.5715 28.8657 66.0086 31.4286 62.8572 31.4286C59.7058 31.4286 57.1429 28.8657 57.1429 25.7143C57.1429 22.5629 59.7058 20 62.8572 20Z" fill="#22C55E"/>
<path d="M77.1429 37.1429V55.7143C77.1429 58.0771 75.22 60 72.8571 60V44.2857C72.8571 40.3471 69.6529 37.1429 65.7143 37.1429H58.5714C57.7829 37.1429 57.1429 37.7829 57.1429 38.5714V44.2857V45.7143V47.1429H45.7143C44.9257 47.1429 44.2857 47.7829 44.2857 48.5714V52.8571H35.7143V48.5714C35.7143 47.7829 35.0743 47.1429 34.2857 47.1429H22.8571V45.7143V44.2857V38.5714C22.8571 37.7829 22.2171 37.1429 21.4286 37.1429H14.2857C10.3471 37.1429 7.14286 40.3471 7.14286 44.2857V60C4.78 60 2.85714 58.0771 2.85714 55.7143V37.1429H0V55.7143C0 58.6357 1.76714 61.1457 4.28571 62.2514V80H7.14286V62.8571H8.57143H10H21.4286V78.5714C21.4286 79.36 22.0686 80 22.8571 80H27.1429H28.5714H30V78.5714V57.1429V55.7143H34.2857H45.7143H50V57.1429V78.5714V80H51.4286H52.8571H57.1429C57.9314 80 58.5714 79.36 58.5714 78.5714V62.8571H70H71.4286H72.8571V80H75.7143V62.2514C78.2329 61.1457 80 58.6357 80 55.7143V37.1429H77.1429ZM28.5714 52.8571H25.7143H17.1429V44.2857H14.2857V54.2857C14.2857 55.0743 14.9257 55.7143 15.7143 55.7143H25.7143C26.5014 55.7143 27.1429 56.3557 27.1429 57.1429V77.1429H24.2857V61.4286C24.2857 60.64 23.6457 60 22.8571 60H10V44.2857C10 41.9229 11.9229 40 14.2857 40H20V44.2857V45.7143V48.5714C20 49.36 20.64 50 21.4286 50H32.8571V52.8571H28.5714ZM57.1429 60C56.3543 60 55.7143 60.64 55.7143 61.4286V77.1429H52.8571V57.1429C52.8571 56.3557 53.4986 55.7143 54.2857 55.7143H64.2857C65.0743 55.7143 65.7143 55.0743 65.7143 54.2857V44.2857H62.8571V52.8571H54.2857H51.4286H47.1429V50H58.5714C59.36 50 60 49.36 60 48.5714V45.7143V44.2857V40H65.7143C68.0771 40 70 41.9229 70 44.2857V60H57.1429Z" fill="#22C55E"/>
<path d="M27.1429 14.2857V18.5714C27.1429 19.1871 27.5357 19.7314 28.12 19.9271C28.2686 19.9757 28.4215 20 28.5715 20C29.0129 20 29.4386 19.7943 29.7143 19.4286L33.5715 14.2857H44.2857C46.6486 14.2857 48.5715 12.3629 48.5715 10V4.28571C48.5715 1.92286 46.6486 0 44.2857 0H27.1429C24.78 0 22.8572 1.92286 22.8572 4.28571V10C22.8572 12.3629 24.78 14.2857 27.1429 14.2857ZM25.7143 4.28571C25.7143 3.49857 26.3557 2.85714 27.1429 2.85714H44.2857C45.0729 2.85714 45.7143 3.49857 45.7143 4.28571V10C45.7143 10.7871 45.0729 11.4286 44.2857 11.4286H32.8572C32.4072 11.4286 31.9843 11.64 31.7143 12L30 14.2857V12.8571C30 12.0686 29.36 11.4286 28.5715 11.4286H27.1429C26.3557 11.4286 25.7143 10.7871 25.7143 10V4.28571Z" fill="#22C55E"/>
<path d="M42.8571 5.71429H28.5714V8.57144H42.8571V5.71429Z" fill="#22C55E"/>
<path d="M47.1428 35.7143H38.5714V38.5714H47.1428V35.7143Z" fill="#22C55E"/>
<path d="M37.1429 30C34.78 30 32.8572 31.9229 32.8572 34.2857V40C32.8572 42.3629 34.78 44.2857 37.1429 44.2857H48.5715C50.9343 44.2857 52.8572 42.3629 52.8572 40V39.0043L55.4743 35.0786C55.7672 34.64 55.7943 34.0771 55.5457 33.6129C55.2972 33.1471 54.8129 32.8571 54.2857 32.8571H52.6129C52.0229 31.1943 50.4343 30 48.5715 30H37.1429ZM50 34.2857C50 35.0743 50.64 35.7143 51.4286 35.7143H51.6158L50.24 37.7786C50.0843 38.0129 50 38.29 50 38.5714V40C50 40.7871 49.3586 41.4286 48.5715 41.4286H37.1429C36.3557 41.4286 35.7143 40.7871 35.7143 40V34.2857C35.7143 33.4986 36.3557 32.8571 37.1429 32.8571H48.5715C49.3586 32.8571 50 33.4986 50 34.2857Z" fill="#22C55E"/>
<path d="M35.7143 22.8571H32.8572V25.7143H35.7143V22.8571Z" fill="#22C55E"/>
<path d="M41.4286 22.8571H38.5714V25.7143H41.4286V22.8571Z" fill="#22C55E"/>
<path d="M47.1429 22.8571H44.2858V25.7143H47.1429V22.8571Z" fill="#22C55E"/>
</svg>
