<svg width="60" height="84" viewBox="0 0 60 84" fill="none" xmlns="http://www.w3.org/2000/svg">
<path d="M30 0C13.4567 0 0 13.46 0 30C0 40.62 5.93667 47.5933 10.7067 53.1967C13.9067 56.95 16.6667 60.1967 16.6667 63.3333V80H26.6667V83.3333H33.3333V80H43.3333V63.3333C43.3333 60.1967 46.0933 56.95 49.2933 53.1967C54.0633 47.5933 60 40.62 60 30C60 13.46 46.5433 0 30 0ZM36.6667 73.3333H23.3333V66.6667H36.6667V73.3333ZM44.2167 48.8733C41.14 52.4867 38.2 55.94 37.11 60H22.89C21.8 55.94 18.86 52.4867 15.7833 48.8733C11.3033 43.61 6.66667 38.1667 6.66667 30C6.66667 17.1333 17.1367 6.66667 30 6.66667C42.8633 6.66667 53.3333 17.1333 53.3333 30C53.3333 38.1667 48.6967 43.61 44.2167 48.8733ZM30 10V16.6667C22.6467 16.6667 16.6667 22.6467 16.6667 30H10C10 18.97 18.97 10 30 10Z" fill="#7EBBF8"/>
</svg>
