<svg width="35" height="35" viewBox="0 0 35 35" fill="none" xmlns="http://www.w3.org/2000/svg">
<path d="M29.75 0H5.25C2.35051 0 0 2.35051 0 5.25V29.75C0 32.6495 2.35051 35 5.25 35H29.75C32.6495 35 35 32.6495 35 29.75V5.25C35 2.35051 32.6495 0 29.75 0Z" fill="#3178C6"/>
<path d="M15.9277 19.414H20.3027V16.6113H8.06641V19.414H12.4414V31.9238H15.9277V19.414ZM21.6699 31.2402C22.2236 31.5273 22.9004 31.7392 23.6523 31.8828C24.4043 32.0263 25.2246 32.0947 26.0449 32.0947C26.8652 32.0947 27.6172 32.0195 28.3691 31.8623C29.1211 31.705 29.7363 31.4453 30.2832 31.1103C30.8369 30.748 31.3086 30.29 31.582 29.6748C31.8555 29.0595 32.0674 28.3759 32.0674 27.4873C32.0674 26.8652 31.9717 26.3251 31.7871 25.8466C31.6025 25.3681 31.3359 24.958 30.9668 24.6162C30.6182 24.2539 30.2148 23.9326 29.7363 23.6591C29.2578 23.3857 28.7109 23.0986 28.0957 22.8388C27.6445 22.6542 27.2754 22.4765 26.8652 22.2988C26.5098 22.121 26.2021 21.9433 25.9766 21.7656C25.7236 21.581 25.5322 21.3896 25.3955 21.1914C25.2588 20.9863 25.1904 20.7607 25.1904 20.5078C25.1904 20.2753 25.2513 20.0634 25.375 19.872C25.4987 19.6806 25.6689 19.5234 25.8877 19.3867C26.1064 19.25 26.3799 19.1474 26.708 19.0722C27.0293 18.997 27.3848 18.9628 27.8018 18.9628C28.0889 18.9628 28.3896 18.984 28.6904 19.0271C29.0049 19.0702 29.3262 19.1365 29.6475 19.2253C29.9688 19.3142 30.2832 19.4236 30.6045 19.5603C30.9053 19.697 31.1855 19.8542 31.4248 20.032V16.8191C30.9053 16.6208 30.3311 16.4705 29.7158 16.3748C29.1006 16.2791 28.417 16.2312 27.5967 16.2312C26.7764 16.2312 26.0244 16.3201 25.2725 16.491C24.5205 16.6619 23.9053 16.9353 23.3584 17.3113C22.8047 17.6804 22.4014 18.1316 22.0596 18.7468C21.7383 19.321 21.5811 19.9773 21.5811 20.7976C21.5811 21.823 21.875 22.7117 22.4697 23.3953C23.0576 24.1472 23.9736 24.6941 25.1357 25.241C25.6074 25.4324 26.0244 25.6238 26.4346 25.8083C26.8447 25.9929 27.1865 26.1843 27.46 26.3826C27.7539 26.5808 27.9863 26.7996 28.1436 27.032C28.3145 27.2644 28.4033 27.5378 28.4033 27.8523C28.4033 28.071 28.35 28.2761 28.2461 28.4675C28.1422 28.6589 27.9795 28.823 27.7607 28.9597C27.542 29.0964 27.2754 29.2058 26.9404 29.2878C26.6191 29.363 26.2568 29.4041 25.7783 29.4041C25.0264 29.4041 24.2744 29.2742 23.5908 29.0144C22.8389 28.7546 22.1553 28.365 21.6699 27.9589V31.2402Z" fill="white"/>
</svg>
