<svg width="36" height="36" viewBox="0 0 36 36" fill="none" xmlns="http://www.w3.org/2000/svg">
<path d="M0 4.75758C0 2.13004 2.13004 0 4.75758 0H30.9242C33.5518 0 35.6818 2.13004 35.6818 4.75758V30.9242C35.6818 33.5518 33.5518 35.6818 30.9242 35.6818H4.75758C2.13004 35.6818 0 33.5518 0 30.9242V4.75758Z" fill="#22C55E"/>
<path d="M0 14.9071H20.2593C21.595 14.9071 22.6778 15.9898 22.6778 17.3255V18.3563C22.6778 19.692 21.595 20.7747 20.2593 20.7747H0V14.9071Z" fill="#111827"/>
<path d="M26.8803 14.9071H32.748V20.7747H26.8803V14.9071Z" fill="#111827"/>
<path d="M3.72677 7.01742C3.72677 5.68176 4.80954 4.59899 6.1452 4.59899H29.4573C30.793 4.59899 31.8758 5.68176 31.8758 7.01742V8.04823C31.8758 9.3839 30.793 10.4667 29.4573 10.4667H6.1452C4.80954 10.4667 3.72677 9.3839 3.72677 8.04823V7.01742Z" fill="#111827"/>
<path d="M3.72677 27.6336C3.72677 26.2979 4.80954 25.2151 6.1452 25.2151H29.4573C30.793 25.2151 31.8758 26.2979 31.8758 27.6336V28.6644C31.8758 30.0001 30.793 31.0828 29.4573 31.0828H6.1452C4.80954 31.0828 3.72677 30.0001 3.72677 28.6644V27.6336Z" fill="#111827"/>
</svg>
